# xmcd
#
# Track frame offsets:
#	150
#	11685
#	24842
#	40345
#	52965
#	80372
#	94567
#	117077
#	127795
#	140297
#	157347
#	169797
#	182187
#	195340
#	226035
#
# Disc length: 3172 seconds
# Revision: 5
# Processed by: cddbd v1.5.2PL0 Copyright (c) Steve Scherf et al.
# Submitted via: dBpowerAMP V12.0
#
DISCID=ad0c620f
DTITLE=Various Artist - Blues and Soul Sessions
DYEAR=1961
DGENRE=Blues
TTITLE0=Hooker, John Lee - Boom Boom
TTITLE1=Thomas, Carla - I Like What You're Doing (To Me)
TTITLE2=Turner, Ike and Tina - Crazy 'Bout You Baby
TTITLE3=Bob and Earl - Harlem Shuffle
TTITLE4=Webster, Katie - Pussycat Moan
TTITLE5=Lil' Ed and The Blues Imperials - Singing Slide
TTITLE6=Watson, Johnny Guitar - Ain't That A Bitch
TTITLE7=Just Brothers - Sliced Tomatoes
TTITLE8=Franklin, Aretha - Today I Sing The Blues
TTITLE9=Preston, Billy - Billy's Bag
TTITLE10=Little Esther - Aged and Mellow Blues
TTITLE11=Reed, Jimmy - Bright Lights, Big City
TTITLE12=Wilson, Jackie and Erma Franklin - I Get The Sweetest Feeling
TTITLE13=Taylor, Koko - Walking The Backstreets
TTITLE14=Young Holt Unlimited - The In Crowd/Wade In The Water
EXTD=
EXTT0=
EXTT1=
EXTT2=
EXTT3=
EXTT4=
EXTT5=
EXTT6=
EXTT7=
EXTT8=
EXTT9=
EXTT10=
EXTT11=
EXTT12=
EXTT13=
EXTT14=
PLAYORDER=
